<mxfile host="app.diagrams.net" modified="2021-07-29T11:26:58.881Z" agent="5.0 (Windows NT 10.0; Win64; x64) AppleWebKit/537.36 (KHTML, like Gecko) Chrome/92.0.4515.107 Safari/537.36" etag="S-GLFVzH-npOEhcjAEOV" version="14.8.3" type="github">
  <diagram id="R2lEEEUBdFMjLlhIrx00" name="Page-1">
    <mxGraphModel dx="2439" dy="781" grid="1" gridSize="10" guides="1" tooltips="1" connect="1" arrows="1" fold="1" page="1" pageScale="1" pageWidth="850" pageHeight="1100" math="0" shadow="0" extFonts="Permanent Marker^https://fonts.googleapis.com/css?family=Permanent+Marker">
      <root>
        <mxCell id="0" />
        <mxCell id="1" parent="0" />
        <mxCell id="f1mMi-jOoDjwaJpYNY92-3" style="edgeStyle=orthogonalEdgeStyle;rounded=0;orthogonalLoop=1;jettySize=auto;html=1;exitX=0;exitY=0.5;exitDx=0;exitDy=0;entryX=1;entryY=0.5;entryDx=0;entryDy=0;" edge="1" parent="1" source="f1mMi-jOoDjwaJpYNY92-1" target="f1mMi-jOoDjwaJpYNY92-2">
          <mxGeometry relative="1" as="geometry" />
        </mxCell>
        <mxCell id="f1mMi-jOoDjwaJpYNY92-1" value="&lt;font color=&quot;#cc6600&quot;&gt;interface&lt;/font&gt; Code" style="rounded=0;whiteSpace=wrap;html=1;" vertex="1" parent="1">
          <mxGeometry x="360" y="360" width="120" height="60" as="geometry" />
        </mxCell>
        <mxCell id="f1mMi-jOoDjwaJpYNY92-6" style="edgeStyle=orthogonalEdgeStyle;rounded=0;orthogonalLoop=1;jettySize=auto;html=1;exitX=0.5;exitY=1;exitDx=0;exitDy=0;entryX=0.5;entryY=0;entryDx=0;entryDy=0;" edge="1" parent="1" source="f1mMi-jOoDjwaJpYNY92-2" target="f1mMi-jOoDjwaJpYNY92-5">
          <mxGeometry relative="1" as="geometry" />
        </mxCell>
        <mxCell id="f1mMi-jOoDjwaJpYNY92-8" style="edgeStyle=orthogonalEdgeStyle;rounded=0;orthogonalLoop=1;jettySize=auto;html=1;exitX=0.5;exitY=1;exitDx=0;exitDy=0;entryX=0.5;entryY=0;entryDx=0;entryDy=0;" edge="1" parent="1" source="f1mMi-jOoDjwaJpYNY92-2" target="f1mMi-jOoDjwaJpYNY92-7">
          <mxGeometry relative="1" as="geometry" />
        </mxCell>
        <mxCell id="f1mMi-jOoDjwaJpYNY92-15" style="edgeStyle=orthogonalEdgeStyle;rounded=0;orthogonalLoop=1;jettySize=auto;html=1;exitX=0.5;exitY=1;exitDx=0;exitDy=0;" edge="1" parent="1" source="f1mMi-jOoDjwaJpYNY92-2" target="f1mMi-jOoDjwaJpYNY92-10">
          <mxGeometry relative="1" as="geometry" />
        </mxCell>
        <mxCell id="f1mMi-jOoDjwaJpYNY92-2" value="&lt;font color=&quot;#cc6600&quot;&gt;abstract class&lt;/font&gt; CodeImpl &lt;font color=&quot;#cc6600&quot;&gt;implements&lt;/font&gt; Code" style="rounded=0;whiteSpace=wrap;html=1;" vertex="1" parent="1">
          <mxGeometry x="180" y="360" width="120" height="60" as="geometry" />
        </mxCell>
        <mxCell id="f1mMi-jOoDjwaJpYNY92-19" style="edgeStyle=orthogonalEdgeStyle;rounded=0;orthogonalLoop=1;jettySize=auto;html=1;exitX=0.5;exitY=1;exitDx=0;exitDy=0;entryX=0.542;entryY=0.006;entryDx=0;entryDy=0;entryPerimeter=0;" edge="1" parent="1" source="f1mMi-jOoDjwaJpYNY92-4" target="f1mMi-jOoDjwaJpYNY92-17">
          <mxGeometry relative="1" as="geometry" />
        </mxCell>
        <mxCell id="f1mMi-jOoDjwaJpYNY92-22" style="edgeStyle=orthogonalEdgeStyle;rounded=0;orthogonalLoop=1;jettySize=auto;html=1;exitX=0.5;exitY=1;exitDx=0;exitDy=0;entryX=0.5;entryY=0;entryDx=0;entryDy=0;" edge="1" parent="1" source="f1mMi-jOoDjwaJpYNY92-4" target="f1mMi-jOoDjwaJpYNY92-21">
          <mxGeometry relative="1" as="geometry" />
        </mxCell>
        <mxCell id="f1mMi-jOoDjwaJpYNY92-35" style="edgeStyle=orthogonalEdgeStyle;rounded=0;orthogonalLoop=1;jettySize=auto;html=1;exitX=0.5;exitY=1;exitDx=0;exitDy=0;" edge="1" parent="1" source="f1mMi-jOoDjwaJpYNY92-4" target="f1mMi-jOoDjwaJpYNY92-28">
          <mxGeometry relative="1" as="geometry" />
        </mxCell>
        <mxCell id="f1mMi-jOoDjwaJpYNY92-4" value="&lt;font color=&quot;#cc6600&quot;&gt;abstract class&lt;/font&gt; CodeGenerator&amp;lt;CODE &lt;font color=&quot;#cc6600&quot;&gt;extends&lt;/font&gt; CodeImpl&amp;gt;" style="rounded=0;whiteSpace=wrap;html=1;" vertex="1" parent="1">
          <mxGeometry x="170" y="670" width="180" height="60" as="geometry" />
        </mxCell>
        <mxCell id="f1mMi-jOoDjwaJpYNY92-5" value="&lt;font color=&quot;#cc6600&quot;&gt;public final class&lt;/font&gt; AlternativeNameCode" style="rounded=1;whiteSpace=wrap;html=1;" vertex="1" parent="1">
          <mxGeometry x="-80" y="510" width="120" height="60" as="geometry" />
        </mxCell>
        <mxCell id="f1mMi-jOoDjwaJpYNY92-7" value="&lt;font color=&quot;#cc6600&quot;&gt;public final class&lt;/font&gt; AreaOfInterestCode" style="rounded=1;whiteSpace=wrap;html=1;" vertex="1" parent="1">
          <mxGeometry x="70" y="510" width="120" height="60" as="geometry" />
        </mxCell>
        <mxCell id="f1mMi-jOoDjwaJpYNY92-9" value="" style="endArrow=none;dashed=1;html=1;dashPattern=1 3;strokeWidth=2;" edge="1" parent="1">
          <mxGeometry width="50" height="50" relative="1" as="geometry">
            <mxPoint x="220" y="539.8199999999999" as="sourcePoint" />
            <mxPoint x="290" y="539.41" as="targetPoint" />
          </mxGeometry>
        </mxCell>
        <mxCell id="f1mMi-jOoDjwaJpYNY92-10" value="&lt;font color=&quot;#cc6600&quot;&gt;public final class&lt;/font&gt; SoftSkillCode" style="rounded=1;whiteSpace=wrap;html=1;" vertex="1" parent="1">
          <mxGeometry x="320" y="510" width="120" height="60" as="geometry" />
        </mxCell>
        <mxCell id="f1mMi-jOoDjwaJpYNY92-12" value="" style="endArrow=classic;startArrow=classic;html=1;" edge="1" parent="1">
          <mxGeometry width="50" height="50" relative="1" as="geometry">
            <mxPoint x="310" y="880" as="sourcePoint" />
            <mxPoint x="400" y="880" as="targetPoint" />
            <Array as="points">
              <mxPoint x="350" y="890" />
            </Array>
          </mxGeometry>
        </mxCell>
        <mxCell id="f1mMi-jOoDjwaJpYNY92-14" value="7 classes" style="text;html=1;strokeColor=none;fillColor=none;align=center;verticalAlign=middle;whiteSpace=wrap;rounded=0;" vertex="1" parent="1">
          <mxGeometry x="320" y="910" width="80" height="20" as="geometry" />
        </mxCell>
        <mxCell id="f1mMi-jOoDjwaJpYNY92-17" value="&lt;font color=&quot;#cc6600&quot;&gt;public class&lt;/font&gt; AlternativeNameCodeGenerator &lt;font color=&quot;#cc6600&quot;&gt;extends &lt;/font&gt;CodeGenerator&amp;lt;AlternativeNameCode&amp;gt;" style="rounded=1;whiteSpace=wrap;html=1;" vertex="1" parent="1">
          <mxGeometry x="-180" y="800" width="230" height="60" as="geometry" />
        </mxCell>
        <mxCell id="f1mMi-jOoDjwaJpYNY92-20" value="&lt;font style=&quot;font-size: 18px&quot;&gt;Each of these Classes have many usages&lt;/font&gt;" style="text;html=1;strokeColor=none;fillColor=none;align=center;verticalAlign=middle;whiteSpace=wrap;rounded=0;" vertex="1" parent="1">
          <mxGeometry x="-410" y="520" width="270" height="20" as="geometry" />
        </mxCell>
        <mxCell id="f1mMi-jOoDjwaJpYNY92-21" value="&lt;font color=&quot;#cc6600&quot;&gt;public class&lt;/font&gt; AreaOfInterestCodeGenerator&amp;nbsp;&lt;font color=&quot;#cc6600&quot;&gt;extends &lt;/font&gt;CodeGenerator&amp;lt;AreaOfInterestCode&amp;gt;" style="rounded=1;whiteSpace=wrap;html=1;" vertex="1" parent="1">
          <mxGeometry x="70" y="800" width="220" height="60" as="geometry" />
        </mxCell>
        <mxCell id="f1mMi-jOoDjwaJpYNY92-23" value="" style="endArrow=none;html=1;" edge="1" parent="1">
          <mxGeometry width="50" height="50" relative="1" as="geometry">
            <mxPoint x="-380" y="640" as="sourcePoint" />
            <mxPoint x="820" y="640" as="targetPoint" />
          </mxGeometry>
        </mxCell>
        <mxCell id="f1mMi-jOoDjwaJpYNY92-24" value="" style="endArrow=none;dashed=1;html=1;dashPattern=1 3;strokeWidth=2;" edge="1" parent="1">
          <mxGeometry width="50" height="50" relative="1" as="geometry">
            <mxPoint x="310" y="840.41" as="sourcePoint" />
            <mxPoint x="380" y="839.9999999999999" as="targetPoint" />
          </mxGeometry>
        </mxCell>
        <mxCell id="f1mMi-jOoDjwaJpYNY92-25" value="" style="endArrow=classic;startArrow=classic;html=1;" edge="1" parent="1">
          <mxGeometry width="50" height="50" relative="1" as="geometry">
            <mxPoint x="210" y="579.9999999999998" as="sourcePoint" />
            <mxPoint x="300" y="579.9999999999998" as="targetPoint" />
            <Array as="points">
              <mxPoint x="250" y="590" />
            </Array>
          </mxGeometry>
        </mxCell>
        <mxCell id="f1mMi-jOoDjwaJpYNY92-26" value="9 classes" style="text;html=1;strokeColor=none;fillColor=none;align=center;verticalAlign=middle;whiteSpace=wrap;rounded=0;" vertex="1" parent="1">
          <mxGeometry x="220" y="610" width="80" height="20" as="geometry" />
        </mxCell>
        <mxCell id="f1mMi-jOoDjwaJpYNY92-27" value="AlternativeNameCode&lt;br&gt;AreaOfInterestCode&lt;br&gt;BehaviouralIndicatorCode&lt;br&gt;CompetenceCode&lt;br&gt;EconomicSectorCode&lt;br&gt;KnowledgeCode&lt;br&gt;OccupationalProfileCode&lt;br&gt;ProofOfLearningCode&lt;br&gt;ReleaseCode&lt;br&gt;SkillCode&lt;br&gt;SoftSkillCode&lt;br&gt;public enum ContextType" style="rounded=0;whiteSpace=wrap;html=1;" vertex="1" parent="1">
          <mxGeometry x="530" y="430" width="150" height="170" as="geometry" />
        </mxCell>
        <mxCell id="f1mMi-jOoDjwaJpYNY92-28" value="&lt;font color=&quot;#cc6600&quot;&gt;public class&lt;/font&gt;&amp;nbsp;SoftSkillCodeGenerator&amp;nbsp;&lt;font color=&quot;#cc6600&quot;&gt;extends &lt;/font&gt;CodeGenerator&amp;lt;SoftSkillCode&amp;gt;" style="rounded=1;whiteSpace=wrap;html=1;" vertex="1" parent="1">
          <mxGeometry x="390" y="800" width="220" height="60" as="geometry" />
        </mxCell>
        <mxCell id="f1mMi-jOoDjwaJpYNY92-29" value="AlternativeNameCodeGenerator&lt;br&gt;AreaOfInterestCodeGenerator&lt;br&gt;BehaviouralIndicatorCodeGenerator&lt;br&gt;CompetenceCodeGenerator&lt;br&gt;EconomicSectorCodeGenerator&lt;br&gt;KnowledgeCodeGenerator&lt;br&gt;OccupationalProfileCodeGenerator&lt;br&gt;ProofOfLearningCodeGenerator&lt;br&gt;&lt;strike&gt;ReleaseCodeGenerator&lt;/strike&gt;&lt;br&gt;SkillCodeGenerator&lt;br&gt;SoftSkillCodeGenerator&lt;br&gt;&lt;strike&gt;public enum ContextType&lt;/strike&gt;" style="rounded=0;whiteSpace=wrap;html=1;" vertex="1" parent="1">
          <mxGeometry x="630" y="720" width="200" height="170" as="geometry" />
        </mxCell>
        <mxCell id="f1mMi-jOoDjwaJpYNY92-31" style="edgeStyle=orthogonalEdgeStyle;rounded=0;orthogonalLoop=1;jettySize=auto;html=1;exitX=1;exitY=0.5;exitDx=0;exitDy=0;entryX=0;entryY=0.5;entryDx=0;entryDy=0;" edge="1" parent="1" source="f1mMi-jOoDjwaJpYNY92-30" target="f1mMi-jOoDjwaJpYNY92-4">
          <mxGeometry relative="1" as="geometry" />
        </mxCell>
        <mxCell id="f1mMi-jOoDjwaJpYNY92-30" value="&lt;font style=&quot;font-size: 20px&quot;&gt;Uses SQL query&lt;/font&gt;" style="text;html=1;strokeColor=none;fillColor=none;align=center;verticalAlign=middle;whiteSpace=wrap;rounded=0;" vertex="1" parent="1">
          <mxGeometry x="-70" y="690" width="180" height="20" as="geometry" />
        </mxCell>
        <mxCell id="f1mMi-jOoDjwaJpYNY92-33" value="&lt;font style=&quot;font-size: 18px&quot;&gt;Each of these Classes have many usages through the method &lt;font color=&quot;#999900&quot;&gt;generateCode() &lt;/font&gt;of its &lt;font color=&quot;#cc6600&quot;&gt;superclass &lt;/font&gt;CodeGenerator, especially in Testing. It seems that Entities are created in tests and the ID&#39;s for the Entities are manually generated here. Tests are build through Builder.class.&amp;nbsp;&lt;/font&gt;" style="text;html=1;strokeColor=none;fillColor=none;align=center;verticalAlign=middle;whiteSpace=wrap;rounded=0;" vertex="1" parent="1">
          <mxGeometry x="-490" y="820" width="270" height="20" as="geometry" />
        </mxCell>
        <mxCell id="f1mMi-jOoDjwaJpYNY92-34" value="&lt;font style=&quot;font-size: 16px&quot;&gt;The CodeGenerator classes use CodeGenerator to generate a code and return a number wrapped in a Code class. For example SoftSkillCodeGenerator returns a code wrapped in SoftSkillCode&amp;nbsp;&lt;/font&gt;" style="text;html=1;strokeColor=none;fillColor=none;align=center;verticalAlign=middle;whiteSpace=wrap;rounded=0;" vertex="1" parent="1">
          <mxGeometry x="-200" y="1000" width="390" height="20" as="geometry" />
        </mxCell>
      </root>
    </mxGraphModel>
  </diagram>
</mxfile>
